<svg width="785" height="771" viewBox="0 0 785 771" fill="none" xmlns="http://www.w3.org/2000/svg">
<path fill-rule="evenodd" clip-rule="evenodd" d="M662 0L752 1.61844e-05C757.523 -5.3948e-06 762 4.47715 762 10V100C762 105.523 757.523 110 752 110C746.477 110 742 105.523 742 100V34.1421L671.429 104.713C678.725 108.614 685.934 112.986 693.029 117.847C748.35 155.492 782.484 219.411 784.838 286.074C790.31 437.639 656.398 559.24 451.75 745.075L449.38 747.227L445.456 750.756C415.638 777.813 369.733 777.813 339.914 750.364L335.599 746.442C276.245 692.77 222.82 644.438 176.958 599.185L74.0711 702.071L59.9289 687.929L162.796 585.062C58.0899 479.473 -3.33676 389.789 0.14011 286.074C2.4942 219.411 36.6286 155.492 91.9498 117.847C195.53 47.2626 323.436 80.2021 392.489 160.982C452.708 90.5375 557.682 56.1765 652.251 95.6074L727.858 20H662C656.477 20 652 15.5228 652 10C652 4.47714 656.477 2.15792e-05 662 0ZM327 413V505H377.8C417.267 505 445.133 495.4 461.4 476.2C477.933 457 486.2 429.533 486.2 393.8C486.2 355.667 477.4 327.267 459.8 308.6C442.467 289.933 414.467 280.6 375.8 280.6C358.467 280.6 343.133 282.333 329.8 285.8C316.467 289.267 305.4 293.267 296.6 297.8V347.8C305.4 342.467 315.4 337.933 326.6 334.2C337.8 330.2 350.333 328.2 364.2 328.2C384.2 328.2 399.4 333.133 409.8 343C420.2 352.867 425.4 370.2 425.4 395C425.4 416.6 421.8 432.733 414.6 443.4C407.4 454.067 397.133 459.4 383.8 459.4H381V376.2H304.2V413H327Z" fill="#DD0426"/>
</svg>
